<svg width="105" height="105" viewBox="0 0 105 105" fill="none" xmlns="http://www.w3.org/2000/svg">
<rect width="105" height="105" rx="20" fill="#5254CF"/>
<path fill-rule="evenodd" clip-rule="evenodd" d="M74.6245 33.2832C76.0485 33.6881 77 34.7783 77 36.0035V53.9257C77 58.9349 74.7581 63.7164 70.7989 67.421C68.8079 69.2865 66.289 70.7392 63.6137 71.9141L52.0196 77L40.4059 71.9115C37.7273 70.7366 35.2052 69.2865 33.2109 67.4184C29.2484 63.7138 27 58.9296 27 53.9151V36.0035C27 34.7783 27.9515 33.6881 29.3755 33.2832L50.8236 27.1627C51.5862 26.9458 52.4171 26.9458 53.1764 27.1627L74.6245 33.2832Z" stroke="#F8F8F8" stroke-width="2" stroke-linecap="round" stroke-linejoin="round"/>
<path d="M43.5293 51.2611L49.6946 56.2702L62.3966 45.9556" stroke="#F8F8F8" stroke-width="2" stroke-linecap="round" stroke-linejoin="round"/>
</svg>
