<svg width="32" height="32" viewBox="0 0 32 32" fill="none" xmlns="http://www.w3.org/2000/svg">
<path d="M12 19.5C12.8284 19.5 13.5 18.8284 13.5 18C13.5 17.1716 12.8284 16.5 12 16.5C11.1716 16.5 10.5 17.1716 10.5 18C10.5 18.8284 11.1716 19.5 12 19.5Z" fill="black"/>
<path d="M20 19.5C20.8284 19.5 21.5 18.8284 21.5 18C21.5 17.1716 20.8284 16.5 20 16.5C19.1716 16.5 18.5 17.1716 18.5 18C18.5 18.8284 19.1716 19.5 20 19.5Z" fill="black"/>
<path d="M9.2998 10C11.4677 9.3215 13.728 8.98414 15.9996 9.00005C18.2712 8.98414 20.5314 9.32149 22.6993 10" stroke="black" stroke-width="2" stroke-linecap="round" stroke-linejoin="round"/>
<path d="M22.7001 22C20.5322 22.6785 18.272 23.0159 16.0005 23C13.7289 23.0159 11.4687 22.6785 9.30078 22" stroke="black" stroke-width="2" stroke-linecap="round" stroke-linejoin="round"/>
<path d="M19.3809 22.761L20.884 25.7673C20.9842 25.9692 21.1499 26.1312 21.354 26.2268C21.5582 26.3224 21.7887 26.3459 22.0079 26.2934C25.0753 25.5435 27.7195 24.236 29.6454 22.5621C29.7925 22.4356 29.8999 22.2694 29.9547 22.0833C30.0096 21.8973 30.0094 21.6994 29.9544 21.5134L25.7077 7.35758C25.6648 7.21484 25.5907 7.08345 25.4906 6.97298C25.3906 6.8625 25.2672 6.77572 25.1294 6.71895C23.9296 6.22773 22.6888 5.84361 21.4213 5.57108C21.1798 5.51817 20.9273 5.55637 20.7123 5.67834C20.4973 5.80032 20.3349 5.99746 20.2564 6.23189L19.2598 9.22184" stroke="black" stroke-width="2" stroke-linecap="round" stroke-linejoin="round"/>
<path d="M12.6198 22.7609L11.1166 25.7673C11.0165 25.9692 10.8508 26.1312 10.6466 26.2268C10.4425 26.3224 10.2119 26.3458 9.99272 26.2934C6.92539 25.5435 4.28112 24.2361 2.35521 22.5621C2.20814 22.4356 2.10074 22.2694 2.04592 22.0833C1.9911 21.8973 1.99121 21.6994 2.04622 21.5134L6.29295 7.35757C6.33582 7.21483 6.40997 7.08345 6.51001 6.97297C6.61005 6.8625 6.73346 6.77571 6.87126 6.71894C8.07101 6.22772 9.31187 5.84361 10.5793 5.57108C10.8208 5.51817 11.0733 5.55637 11.2883 5.67834C11.5034 5.80032 11.6657 5.99746 11.7442 6.23189L12.7409 9.22184" stroke="black" stroke-width="2" stroke-linecap="round" stroke-linejoin="round"/>
<path d="M12 19.5C12.8284 19.5 13.5 18.8284 13.5 18C13.5 17.1716 12.8284 16.5 12 16.5C11.1716 16.5 10.5 17.1716 10.5 18C10.5 18.8284 11.1716 19.5 12 19.5Z" fill="black"/>
<path d="M20 19.5C20.8284 19.5 21.5 18.8284 21.5 18C21.5 17.1716 20.8284 16.5 20 16.5C19.1716 16.5 18.5 17.1716 18.5 18C18.5 18.8284 19.1716 19.5 20 19.5Z" fill="black"/>
<path d="M9.2998 10C11.4677 9.3215 13.728 8.98414 15.9996 9.00005C18.2712 8.98414 20.5314 9.32149 22.6993 10" stroke="black" stroke-width="2" stroke-linecap="round" stroke-linejoin="round"/>
<path d="M22.7001 22C20.5322 22.6785 18.272 23.0159 16.0005 23C13.7289 23.0159 11.4687 22.6785 9.30078 22" stroke="black" stroke-width="2" stroke-linecap="round" stroke-linejoin="round"/>
<path d="M19.3809 22.761L20.884 25.7673C20.9842 25.9692 21.1499 26.1312 21.354 26.2268C21.5582 26.3224 21.7887 26.3459 22.0079 26.2934C25.0753 25.5435 27.7195 24.236 29.6454 22.5621C29.7925 22.4356 29.8999 22.2694 29.9547 22.0833C30.0096 21.8973 30.0094 21.6994 29.9544 21.5134L25.7077 7.35758C25.6648 7.21484 25.5907 7.08345 25.4906 6.97298C25.3906 6.8625 25.2672 6.77572 25.1294 6.71895C23.9296 6.22773 22.6888 5.84361 21.4213 5.57108C21.1798 5.51817 20.9273 5.55637 20.7123 5.67834C20.4973 5.80032 20.3349 5.99746 20.2564 6.23189L19.2598 9.22184" stroke="black" stroke-width="2" stroke-linecap="round" stroke-linejoin="round"/>
<path d="M12.6198 22.7609L11.1166 25.7673C11.0165 25.9692 10.8508 26.1312 10.6466 26.2268C10.4425 26.3224 10.2119 26.3458 9.99272 26.2934C6.92539 25.5435 4.28112 24.2361 2.35521 22.5621C2.20814 22.4356 2.10074 22.2694 2.04592 22.0833C1.9911 21.8973 1.99121 21.6994 2.04622 21.5134L6.29295 7.35757C6.33582 7.21483 6.40997 7.08345 6.51001 6.97297C6.61005 6.8625 6.73346 6.77571 6.87126 6.71894C8.07101 6.22772 9.31187 5.84361 10.5793 5.57108C10.8208 5.51817 11.0733 5.55637 11.2883 5.67834C11.5034 5.80032 11.6657 5.99746 11.7442 6.23189L12.7409 9.22184" stroke="black" stroke-width="2" stroke-linecap="round" stroke-linejoin="round"/>
</svg>
