<svg width="75" height="75" viewBox="0 0 75 75" fill="none" xmlns="http://www.w3.org/2000/svg">
<path d="M22.3242 38.7308L44.5898 11.7776L63.281 11.7188L63.2221 30.4099L36.2689 52.6755" stroke="#F8F8F8" stroke-width="2" stroke-linecap="round" stroke-linejoin="round"/>
<path d="M29.2969 45.7031L46.875 28.125" stroke="#F8F8F8" stroke-width="2" stroke-linecap="round" stroke-linejoin="round"/>
<path d="M24.0651 57.8483L15.2933 66.6201C15.0757 66.8377 14.8173 67.0104 14.5329 67.1282C14.2486 67.246 13.9438 67.3066 13.636 67.3066C13.3282 67.3066 13.0235 67.246 12.7391 67.1282C12.4548 67.0104 12.1964 66.8377 11.9787 66.6201L8.37983 63.0212C8.16219 62.8036 7.98955 62.5452 7.87177 62.2608C7.75398 61.9765 7.69336 61.6717 7.69336 61.3639C7.69336 61.0561 7.75398 60.7513 7.87177 60.467C7.98955 60.1826 8.16219 59.9243 8.37983 59.7066L17.1516 50.9348C17.3693 50.7172 17.5419 50.4588 17.6597 50.1744C17.7775 49.8901 17.8381 49.5853 17.8381 49.2775C17.8381 48.9697 17.7775 48.665 17.6597 48.3806C17.5419 48.0963 17.3693 47.8379 17.1516 47.6202L11.0323 41.5009C10.5928 41.0614 10.3459 40.4652 10.3459 39.8436C10.3459 39.222 10.5928 38.6259 11.0323 38.1864L14.749 34.4697C15.1886 34.0301 15.7847 33.7832 16.4063 33.7832C17.0279 33.7832 17.624 34.0301 18.0636 34.4697L40.5303 56.9364C40.9698 57.3759 41.2167 57.972 41.2167 58.5936C41.2167 59.2152 40.9698 59.8114 40.5303 60.2509L36.8136 63.9676C36.374 64.4072 35.7779 64.6541 35.1563 64.6541C34.5347 64.6541 33.9386 64.4072 33.499 63.9676L27.3797 57.8483C26.9401 57.4087 26.344 57.1618 25.7224 57.1618C25.1008 57.1618 24.5047 57.4087 24.0651 57.8483V57.8483Z" stroke="#F8F8F8" stroke-width="2" stroke-linecap="round" stroke-linejoin="round"/>
</svg>
