<svg width="105" height="105" viewBox="0 0 105 105" fill="none" xmlns="http://www.w3.org/2000/svg">
<rect width="105" height="105" rx="20" fill="#F7F7F9"/>
<path d="M27.2578 45.5106H76.7688" stroke="#200E32" stroke-width="1.5" stroke-linecap="round" stroke-linejoin="round"/>
<path d="M64.3392 55.2743H64.365" stroke="#200E32" stroke-width="1.5" stroke-linecap="round" stroke-linejoin="round"/>
<path d="M52.0131 55.2743H52.0388" stroke="#200E32" stroke-width="1.5" stroke-linecap="round" stroke-linejoin="round"/>
<path d="M39.6605 55.2743H39.6863" stroke="#200E32" stroke-width="1.5" stroke-linecap="round" stroke-linejoin="round"/>
<path d="M64.3392 64.9904H64.365" stroke="#200E32" stroke-width="1.5" stroke-linecap="round" stroke-linejoin="round"/>
<path d="M52.0131 64.9904H52.0388" stroke="#200E32" stroke-width="1.5" stroke-linecap="round" stroke-linejoin="round"/>
<path d="M39.6605 64.9904H39.6863" stroke="#200E32" stroke-width="1.5" stroke-linecap="round" stroke-linejoin="round"/>
<path d="M63.233 27V35.2269" stroke="#200E32" stroke-width="1.5" stroke-linecap="round" stroke-linejoin="round"/>
<path d="M40.7935 27V35.2269" stroke="#200E32" stroke-width="1.5" stroke-linecap="round" stroke-linejoin="round"/>
<path fill-rule="evenodd" clip-rule="evenodd" d="M63.773 30.948H40.2527C32.0952 30.948 27 35.0378 27 42.5556V65.1797C27 72.8156 32.0952 77 40.2527 77H63.7472C71.9304 77 76.9999 72.8865 76.9999 65.3688V42.5556C77.0256 35.0378 71.9562 30.948 63.773 30.948Z" stroke="#200E32" stroke-width="1.5" stroke-linecap="round" stroke-linejoin="round"/>
</svg>
