<svg width="32" height="32" viewBox="0 0 32 32" fill="none" xmlns="http://www.w3.org/2000/svg">
<path d="M5.9997 25C5.9997 25 10.9997 24 11.9997 21C11.9997 21 3.9997 18 5.9997 7C5.9997 7 9.9997 12 15.9997 13V11.0004C15.9998 9.85156 16.3954 8.73783 17.1201 7.84641C17.8447 6.95498 18.8542 6.34023 19.9788 6.10551C21.1033 5.87078 22.2744 6.0304 23.2951 6.55752C24.3159 7.08464 25.124 7.94712 25.5836 8.99996L29.9997 9L25.9997 13C25.9997 20 20.9997 27 11.9997 27C7.9997 27 5.9997 25 5.9997 25Z" stroke="black" stroke-width="2" stroke-linecap="round" stroke-linejoin="round"/>
</svg>
