<svg width="105" height="105" viewBox="0 0 105 105" fill="none" xmlns="http://www.w3.org/2000/svg">
<rect width="105" height="105" rx="20" fill="#F7F7F9"/>
<path d="M65.7793 49.6381C69.6856 49.6381 72.8544 45.856 72.8544 41.1904C72.8544 36.5248 69.6856 32.7427 65.7793 32.7427" stroke="#200E32" stroke-width="1.5" stroke-linecap="round" stroke-linejoin="round"/>
<path d="M69.0322 58.8181C70.1987 58.9142 71.3586 59.1117 72.5005 59.4187C74.0871 59.7897 75.9956 60.5664 76.6749 62.2666C77.1084 63.3556 77.1084 64.6234 76.6749 65.7151C75.9978 67.4153 74.0871 68.1893 72.5005 68.579" stroke="#200E32" stroke-width="1.5" stroke-linecap="round" stroke-linejoin="round"/>
<path d="M38.2196 49.6381C34.3133 49.6381 31.1445 45.856 31.1445 41.1904C31.1445 36.5248 34.3133 32.7427 38.2196 32.7427" stroke="#200E32" stroke-width="1.5" stroke-linecap="round" stroke-linejoin="round"/>
<path d="M34.9673 58.8181C33.8008 58.9142 32.6409 59.1117 31.499 59.4187C29.9124 59.7897 28.0039 60.5664 27.3268 62.2666C26.8911 63.3556 26.8911 64.6234 27.3268 65.7151C28.0017 67.4153 29.9124 68.1893 31.499 68.579" stroke="#200E32" stroke-width="1.5" stroke-linecap="round" stroke-linejoin="round"/>
<path fill-rule="evenodd" clip-rule="evenodd" d="M51.9881 60.6375C59.9034 60.6375 66.6656 62.0681 66.6656 67.7933C66.6656 73.5159 59.9481 74.9999 51.9881 74.9999C44.0705 74.9999 37.3105 73.5692 37.3105 67.844C37.3105 62.1188 44.0281 60.6375 51.9881 60.6375Z" stroke="#200E32" stroke-width="1.5" stroke-linecap="round" stroke-linejoin="round"/>
<path fill-rule="evenodd" clip-rule="evenodd" d="M51.9879 52.4711C46.7676 52.4711 42.582 47.4719 42.582 41.2342C42.582 34.9992 46.7676 30 51.9879 30C57.2082 30 61.3937 34.9992 61.3937 41.2342C61.3937 47.4719 57.2082 52.4711 51.9879 52.4711Z" stroke="#200E32" stroke-width="1.5" stroke-linecap="round" stroke-linejoin="round"/>
</svg>
